# xmcd CD database file
#
# Track frame offsets:
#	150
#	4290
#	19383
#	34425
#	44968
#	60878
#	78003
#	96033
#	111990
#	127690
#	144508
#	157930
#	170870
#
# Disc length: 2899 seconds
#
# Revision: 1
# Processed by: cddbd v1.4b42PL1 Copyright (c) Steve Scherf et al.
# Submitted via: CDex 1.40Beta4
#
DISCID=a80b510d
DTITLE=Chocolate Genius - Godmusic
DYEAR=2001
DGENRE=Blues
TTITLE0=Perfidia
TTITLE1=For One More Look At You
TTITLE2=Love
TTITLE3=My Endless Fall
TTITLE4=The Eyes Of The Lord
TTITLE5=Bossman Piss (In My Lemonade)
TTITLE6=To Serve Music
TTITLE7=Planet Rock
TTITLE8=Infidel Blues
TTITLE9=Glorious
TTITLE10=Pocket Mouse
TTITLE11=Birth Control
TTITLE12=Godmusic
EXTD=YEAR: 2001 ID3G:   0
EXTT0=
EXTT1=
EXTT2=
EXTT3=
EXTT4=
EXTT5=
EXTT6=
EXTT7=
EXTT8=
EXTT9=
EXTT10=
EXTT11=
EXTT12=
PLAYORDER=
